HIERARCHY
ROOT Hips
{
	OFFSET 228.634003 92.561920 -263.051910
	CHANNELS 6 Xposition Yposition Zposition Zrotation Yrotation Xrotation 
	JOINT LeftUpLeg
	{
		OFFSET 0.103458 1.857820 10.548502
		CHANNELS 3 Zrotation Yrotation Xrotation
		JOINT LeftLeg
		{
			OFFSET 43.500000 -0.000023 -0.000011
			CHANNELS 3 Zrotation Yrotation Xrotation
			JOINT LeftFoot
			{
				OFFSET 42.372192 0.000038 0.000002
				CHANNELS 3 Zrotation Yrotation Xrotation
				JOINT LeftToe
				{
					OFFSET 17.299992 -0.000004 0.000006
					CHANNELS 3 Zrotation Yrotation Xrotation
					End Site
					{
						OFFSET 0.000000 0.000000 0.000000
					}
				}
			}
		}
	}
	JOINT RightUpLeg
	{
		OFFSET 0.103461 1.857814 -10.548508
		CHANNELS 3 Zrotation Yrotation Xrotation
		JOINT RightLeg
		{
			OFFSET 43.500042 -0.000015 0.000008
			CHANNELS 3 Zrotation Yrotation Xrotation
			JOINT RightFoot
			{
				OFFSET 42.372253 0.000008 0.000006
				CHANNELS 3 Zrotation Yrotation Xrotation
				JOINT RightToe
				{
					OFFSET 17.299973 -0.000014 0.000011
					CHANNELS 3 Zrotation Yrotation Xrotation
					End Site
					{
						OFFSET 0.000000 0.000000 0.000000
					}
				}
			}
		}
	}
	JOINT Spine
	{
		OFFSET 6.901966 -2.603737 -0.000007
		CHANNELS 3 Zrotation Yrotation Xrotation
		JOINT Spine1
		{
			OFFSET 12.588102 0.000017 0.000001
			CHANNELS 3 Zrotation Yrotation Xrotation
			JOINT Spine2
			{
				OFFSET 12.343197 -0.000013 0.000000
				CHANNELS 3 Zrotation Yrotation Xrotation
				JOINT Neck
				{
					OFFSET 25.832905 -0.000008 0.000000
					CHANNELS 3 Zrotation Yrotation Xrotation
					JOINT Head
					{
						OFFSET 11.766610 0.000009 -0.000002
						CHANNELS 3 Zrotation Yrotation Xrotation
						End Site
						{
							OFFSET 0.000000 0.000000 0.000000
						}
					}
				}
				JOINT LeftShoulder
				{
					OFFSET 19.745903 -1.480377 6.000115
					CHANNELS 3 Zrotation Yrotation Xrotation
					JOINT LeftArm
					{
						OFFSET 11.284125 -0.000014 -0.000024
						CHANNELS 3 Zrotation Yrotation Xrotation
						JOINT LeftForeArm
						{
							OFFSET 33.000046 -0.000012 0.000029
							CHANNELS 3 Zrotation Yrotation Xrotation
							JOINT LeftHand
							{
								OFFSET 25.199989 0.000034 0.000012
								CHANNELS 3 Zrotation Yrotation Xrotation
								End Site
								{
									OFFSET 0.000000 0.000000 0.000000
								}
							}
						}
					}
				}
				JOINT RightShoulder
				{
					OFFSET 19.746098 -1.480362 -6.000071
					CHANNELS 3 Zrotation Yrotation Xrotation
					JOINT RightArm
					{
						OFFSET 11.284137 -0.000006 -0.000008
						CHANNELS 3 Zrotation Yrotation Xrotation
						JOINT RightForeArm
						{
							OFFSET 33.000095 0.000017 0.000000
							CHANNELS 3 Zrotation Yrotation Xrotation
							JOINT RightHand
							{
								OFFSET 25.199778 0.000144 0.000423
								CHANNELS 3 Zrotation Yrotation Xrotation
								End Site
								{
									OFFSET 0.000000 0.000000 0.000000
								}
							}
						}
					}
				}
			}
		}
	}
}
MOTION
Frames: 9
Frame Time: 0.033333
67.093727 13.368750 -454.883209 12.900303 62.319288 -36.667556 135.082168 -16.674093 -169.012826 -57.574458 -4.625221 -5.891746 70.158310 1.333782 -8.798941 21.454546 0.003090 -0.000002 136.375969 26.328798 -142.280422 -141.172101 -7.332643 3.076334 74.643647 4.712685 20.980420 21.454565 -0.003104 -0.000018 15.246067 -0.438685 -2.602881 20.488896 -0.409361 -5.242115 20.172241 -0.440821 -5.239540 39.045613 -0.946342 -15.722353 -21.265524 12.436246 -22.347911 85.435913 -71.072087 94.444209 -47.686742 14.647942 -6.550753 -36.744437 -14.727232 1.358344 -26.791006 -14.774722 51.510053 84.482767 83.185113 -94.387238 -47.519982 -38.313185 81.181730 -81.330723 13.748185 -2.926623 8.461721 11.153811 -7.566932 
66.221153 13.145850 -454.283905 21.595614 61.741987 -31.376038 134.084810 -16.264601 -166.855688 -60.240561 -4.943515 -6.434200 70.351536 1.994503 -8.031546 21.454555 0.003095 -0.000001 133.633703 23.730806 -139.789425 -141.874299 -7.439953 4.608954 73.548706 3.535721 20.079539 21.454558 -0.003102 -0.000011 15.308197 -0.476481 -2.586693 20.614911 -0.484311 -5.216723 20.298229 -0.515627 -5.213718 37.160467 -0.258196 -15.672328 -22.335084 11.362990 -22.069038 84.408502 -70.466502 95.507573 -48.245372 13.875911 -4.458398 -37.499152 -15.000390 1.394387 -28.031551 -12.195652 55.493778 86.466124 83.275381 -92.406620 -46.442336 -38.958501 81.672930 -84.543672 10.245723 -2.821476 6.078217 11.955987 -14.950207 
65.389313 13.199900 -453.631714 29.254793 60.811339 -27.629509 133.361342 -16.185701 -167.082082 -63.134772 -3.924879 -6.743765 70.599390 2.169172 -8.126375 21.454553 0.003094 0.000002 130.711611 21.071306 -138.336753 -142.321307 -7.559677 7.184107 72.749506 2.968833 23.632316 21.454562 -0.003109 -0.000012 15.409040 -0.522377 -2.555180 20.818656 -0.576354 -5.162497 20.501921 -0.607344 -5.158926 35.092259 -0.720935 -15.643252 -23.269295 10.795027 -21.779598 83.830600 -70.555397 96.068195 -49.465012 13.089237 -4.473983 -38.522441 -15.125848 1.428007 -27.650713 -11.798009 55.238349 86.732194 82.715326 -92.190492 -45.068836 -39.567689 82.353237 -87.919131 7.141878 -2.753592 2.822697 11.133739 -27.183752 
64.700256 13.359980 -453.058105 36.345301 59.574891 -25.017088 132.737418 -16.699905 -167.957753 -65.927376 -3.032668 -6.282359 70.937880 1.739976 -8.392466 21.454555 0.003084 0.000007 127.009553 16.838108 -137.277035 -142.536185 -7.759130 10.449340 71.178276 1.781840 26.198048 21.454568 -0.003109 -0.000009 15.561157 -0.553886 -2.466009 21.124097 -0.648184 -4.991562 20.807275 -0.678149 -4.987557 32.539441 -1.414653 -15.365371 -24.325857 10.412514 -21.286481 83.525495 -70.542706 96.369311 -50.292384 12.127881 -6.457561 -40.232567 -15.364746 1.487674 -26.863979 -12.329738 53.641198 86.588453 82.303848 -92.368815 -44.283398 -39.713343 82.461871 -91.025610 4.475301 -2.705550 0.360719 10.861450 -40.907799 
64.017967 13.465080 -452.450592 43.188106 57.963697 -22.716326 131.549894 -17.289902 -168.279469 -69.180520 -2.320606 -4.867594 71.355615 0.930744 -7.752688 21.454557 0.003094 0.000006 123.690027 12.294297 -137.114422 -142.936612 -7.868661 10.558210 70.143283 2.330833 27.175651 21.454555 -0.003108 -0.000015 15.736308 -0.517367 -2.435634 21.472534 -0.573723 -4.924824 21.155690 -0.603288 -4.921267 29.664270 -1.955459 -15.038463 -25.396272 9.926830 -20.740961 82.400693 -70.455607 97.482229 -50.794867 10.878363 -8.734634 -42.063201 -16.106793 1.585613 -25.960741 -13.951452 52.151626 87.465087 82.124706 -91.513033 -44.138605 -38.749272 81.181122 -93.781168 2.465986 -2.688388 -0.177857 9.766805 -49.205236 
63.390949 13.485280 -451.858490 49.569405 56.263007 -20.704532 130.168871 -17.647201 -167.621803 -72.851146 -2.324551 -3.441728 72.551239 -0.235279 -8.425189 21.454550 0.003092 0.000002 120.890291 7.914501 -136.585465 -143.435707 -7.930401 9.478108 70.176335 2.743226 25.983240 21.454555 -0.003111 -0.000019 15.902974 -0.490491 -2.569777 21.804481 -0.487966 -5.185772 21.487780 -0.519099 -5.182729 26.760464 -1.681365 -14.476222 -26.351408 8.677389 -19.664265 80.326016 -70.484602 99.517188 -50.819172 9.143940 -11.207687 -43.992046 -16.593499 1.672078 -24.376725 -15.648949 49.459541 89.112133 81.660492 -89.916244 -44.330305 -36.956654 77.961377 -96.200093 1.995326 -2.763879 -0.702857 8.970010 -56.644951 
62.793381 13.430180 -451.330811 55.609898 54.253501 -19.077548 128.891967 -18.138500 -167.213099 -76.897883 -2.280845 -2.499883 73.382152 -1.181376 -9.466081 21.454551 0.003093 -0.000001 118.355977 3.946593 -135.157532 -143.783788 -8.071861 8.910077 70.177967 2.805354 24.874895 21.454555 -0.003110 -0.000023 16.039490 -0.417064 -2.751777 22.073628 -0.301590 -5.532351 21.757112 -0.334813 -5.530417 23.946609 -1.155751 -13.699265 -26.521199 7.654778 -18.360563 78.426793 -70.588612 101.372384 -50.544735 6.728957 -14.038370 -45.686230 -16.624517 1.723957 -22.575886 -16.582919 47.033762 90.217694 81.014581 -88.874558 -44.633480 -34.905962 74.154660 -98.358460 1.620434 -2.834360 -0.467464 9.321992 -63.415206 
62.169380 13.281910 -450.755402 61.942883 52.028928 -17.778766 127.511736 -19.383501 -167.983831 -81.227103 -1.939097 -1.382334 73.951729 -1.986629 -9.571125 21.454551 0.003095 0.000002 114.974159 -0.394607 -133.062563 -144.092690 -8.262966 9.750186 69.652316 2.546403 25.459764 21.454555 -0.003113 -0.000023 16.013237 -0.325427 -2.809420 22.016432 -0.110406 -5.629181 21.699989 -0.144214 -5.628396 21.805104 0.118321 -12.726586 -26.758227 6.277030 -16.695011 76.278221 -70.585504 103.479094 -50.234139 3.820781 -15.550674 -46.538720 -17.130931 1.783186 -21.653129 -17.831449 45.801982 91.076481 80.573392 -88.057927 -44.853337 -33.004376 70.202972 -99.954259 1.341357 -2.886246 0.523464 8.973757 -69.028077 
61.510021 13.148770 -450.304413 68.133609 49.744302 -16.338330 126.286960 -21.003107 -169.962646 -84.548548 -1.349361 0.177825 74.723615 -1.937985 -5.771247 21.454548 0.003095 -0.000001 111.398288 -4.538104 -130.911272 -144.203011 -8.407892 10.581761 69.011576 2.553190 26.676767 21.454557 -0.003112 -0.000013 15.870807 -0.141421 -2.896254 21.722203 0.263395 -5.767310 21.405852 0.228750 -5.768771 20.757355 1.529656 -11.704222 -27.156402 5.331772 -15.175849 73.793494 -70.445506 105.923366 -49.527631 1.088921 -17.235743 -47.840445 -17.509041 1.848513 -20.681123 -18.260080 45.541676 95.072169 80.480556 -84.078912 -44.885893 -30.867725 65.228532 -100.784605 1.343464 -2.923467 1.933433 9.898408 -73.323952 
